<svg width="24" height="42" viewBox="0 0 24 42" fill="none" xmlns="http://www.w3.org/2000/svg">
<path d="M11.7338 10.0612C10.4795 9.43472 9.08311 9.14727 7.68335 9.22745C6.28359 9.30763 4.92917 9.75265 3.75463 10.5183C2.5801 11.284 1.62633 12.3436 0.988081 13.592C0.34983 14.8403 0.0493109 16.2339 0.116376 17.6344C0.183441 19.0348 0.615757 20.3934 1.37038 21.575C2.125 22.7567 3.17565 23.7203 4.41798 24.3702C5.6603 25.0202 7.05105 25.3337 8.45207 25.2798C9.85308 25.2258 11.2156 24.8063 12.4043 24.0627L10.7613 21.4361C10.0309 21.893 9.19373 22.1508 8.33287 22.184C7.472 22.2171 6.61745 22.0244 5.85409 21.6251C5.09074 21.2257 4.44515 20.6336 3.98147 19.9075C3.51779 19.1815 3.25215 18.3467 3.21094 17.4862C3.16973 16.6257 3.35439 15.7694 3.74657 15.0023C4.13874 14.2352 4.72479 13.5841 5.44649 13.1137C6.1682 12.6432 7.00043 12.3698 7.86052 12.3205C8.72062 12.2712 9.57863 12.4478 10.3493 12.8328L11.7338 10.0612Z" fill="white"/>
<path d="M9.11972 22.6409C9.39903 23.3853 9.84195 24.04 10.4079 24.545C10.9739 25.05 11.6449 25.3892 12.3594 25.5315C13.0739 25.6738 13.8091 25.6147 14.4977 25.3595C15.1863 25.1044 15.8063 24.6614 16.3009 24.071L13.9473 21.6364C13.8193 21.7893 13.6587 21.904 13.4804 21.9701C13.3021 22.0362 13.1117 22.0515 12.9267 22.0146C12.7417 21.9778 12.5679 21.8899 12.4214 21.7592C12.2748 21.6284 12.1601 21.4589 12.0878 21.2661L9.11972 22.6409Z" fill="white"/>
<path d="M7.19301 29.8C6.60375 30.8821 6.27125 32.0853 6.22123 33.3165C6.1712 34.5477 6.40498 35.7739 6.90449 36.9003C7.404 38.0267 8.15587 39.0232 9.10196 39.8126C10.048 40.6021 11.163 41.1634 12.3607 41.4531C13.5583 41.7429 14.8066 41.7534 16.0089 41.4837C17.2112 41.214 18.3354 40.6715 19.2946 39.898C20.2538 39.1245 21.0222 38.1408 21.5405 37.0229C22.0589 35.905 22.3131 34.6829 22.2837 33.451L19.0627 33.5279C19.0803 34.2658 18.928 34.998 18.6175 35.6676C18.307 36.3373 17.8467 36.9266 17.2721 37.3899C16.6975 37.8533 16.024 38.1783 15.3038 38.3398C14.5835 38.5014 13.8358 38.4951 13.1183 38.3215C12.4009 38.148 11.733 37.8117 11.1662 37.3388C10.5995 36.8659 10.1491 36.269 9.84982 35.5942C9.55059 34.9194 9.41055 34.1849 9.44052 33.4473C9.47049 32.7098 9.66967 31.989 10.0227 31.3408L7.19301 29.8Z" fill="white"/>
<line x1="20.6576" y1="34.2936" x2="20.6576" y2="8.57129" stroke="white" stroke-width="3.25714"/>
<circle cx="20.6786" cy="3.74999" r="3.21429" fill="white"/>
<path d="M11.6785 24L11.6785 8.57143" stroke="white" stroke-width="3.25714"/>
</svg>
