<svg width="200" height="200" viewBox="0 0 200 200" fill="none" xmlns="http://www.w3.org/2000/svg">
<path d="M143.127 38.64V122.147C143.127 127.637 142.121 132.761 140.11 137.519C138.099 142.277 135.323 146.432 131.784 149.985C128.224 153.55 124.002 156.386 119.356 158.335C114.609 160.357 109.502 161.366 104.034 161.36C98.566 161.355 93.457 160.347 88.707 158.335C84.0611 156.386 79.8397 153.55 76.279 149.985C72.741 146.439 69.926 142.284 67.834 137.519C65.742 132.754 64.6973 127.63 64.7 122.147H77.043C77.043 125.862 77.732 129.332 79.11 132.557C81.812 138.959 86.9205 144.043 93.335 146.715C96.575 148.091 100.06 148.777 103.79 148.775C107.52 148.773 111.005 148.087 114.246 146.715C120.66 144.043 125.767 138.958 128.47 132.557C129.848 129.329 130.537 125.859 130.538 122.147V38.64H143.127Z" fill="white"/>
<path d="M122.7 87.15V98.65H103.6V92.013C98.618 96.164 92.333 98.655 85.453 98.655C69.679 98.655 56.869 85.371 56.869 69.122C56.869 52.873 69.679 39.708 85.453 39.708C92.333 39.708 98.618 42.198 103.6 46.349V39H114.631V87.15H122.7ZM103.6 66.75C102.418 57.5 94.827 50.5 85.457 50.5C75.494 50.5 67.31 58.8 67.31 69.121C67.31 79.442 75.494 87.86 85.457 87.86C94.827 87.86 102.418 80.745 103.604 71.611L103.6 66.75Z" fill="white"/>
</svg>
