<svg width="148" height="256" viewBox="0 0 148 256" fill="none" xmlns="http://www.w3.org/2000/svg">
<path d="M72.3432 59.2699C64.5388 55.3715 55.8502 53.5829 47.1406 54.0818C38.431 54.5807 30.0035 57.3497 22.6953 62.1138C15.3871 66.8779 9.45251 73.4712 5.48117 81.2387C1.50984 89.0063 -0.36006 97.6777 0.0572337 106.392C0.474528 115.106 3.16449 123.559 7.8599 130.911C12.5553 138.264 19.0927 144.26 26.8228 148.304C34.5528 152.348 43.2063 154.299 51.9238 153.963C60.6412 153.627 69.1191 151.017 76.5153 146.39L66.2925 130.047C61.7479 132.89 56.5386 134.494 51.1821 134.7C45.8256 134.906 40.5083 133.708 35.7586 131.223C31.0088 128.738 26.9918 125.054 24.1067 120.536C21.2216 116.018 19.5687 110.824 19.3123 105.47C19.0559 100.115 20.2049 94.787 22.6451 90.0142C25.0853 85.2413 28.7318 81.19 33.2224 78.2627C37.713 75.3354 42.8913 73.634 48.243 73.3274C53.5947 73.0209 58.9335 74.1199 63.729 76.5153L72.3432 59.2699Z" fill="white"/>
<path d="M56.0787 137.543C57.8166 142.175 60.5726 146.249 64.0942 149.391C67.6159 152.534 71.7907 154.644 76.2365 155.529C80.6823 156.415 85.2569 156.047 89.5416 154.459C93.8262 152.872 97.684 150.115 100.762 146.442L86.1172 131.293C85.3202 132.244 84.3213 132.958 83.2118 133.369C82.1023 133.78 80.9177 133.876 79.7665 133.647C78.6153 133.417 77.5342 132.871 76.6223 132.057C75.7104 131.243 74.9968 130.189 74.5468 128.989L56.0787 137.543Z" fill="white"/>
<path d="M44.0891 182.088C40.4226 188.822 38.3537 196.308 38.0425 203.969C37.7312 211.63 39.1858 219.259 42.2939 226.268C45.402 233.277 50.0802 239.477 55.967 244.389C61.8538 249.301 68.7914 252.794 76.2434 254.597C83.6954 256.4 91.4623 256.465 98.9434 254.787C106.425 253.109 113.42 249.733 119.388 244.92C125.356 240.108 130.138 233.987 133.363 227.031C136.588 220.075 138.183 216.165 138 208.5L118 205.5C118.11 210.092 117.107 214.431 115.175 218.598C113.243 222.765 110.379 226.432 106.803 229.315C103.228 232.198 99.0377 234.22 94.5561 235.225C90.0745 236.23 85.4218 236.192 80.9577 235.111C76.4936 234.031 72.3377 231.939 68.8112 228.997C65.2848 226.054 62.4823 222.34 60.6204 218.141C58.7585 213.943 57.8871 209.372 58.0736 204.783C58.2601 200.194 59.4994 195.709 61.6958 191.675L44.0891 182.088Z" fill="white"/>
<line x1="128.001" y1="210.049" x2="128.001" y2="49.9991" stroke="white" stroke-width="20"/>
<circle cx="128" cy="20" r="20" fill="white"/>
<path d="M72 146L72 50" stroke="white" stroke-width="20"/>
</svg>
